PathFileType	4	(X/Y/Z)	RBDS027\RBDS027runT45.trc
DataRate	CameraRate	NumFrames	NumMarkers	Units	OrigDataRate	OrigDataStartFrame	OrigNumFrames
150.000000	150.000000	4	33	mm	150.000000	0	4500
Frame#	Time	L.ASIS			L.Heel.Bottom			L.Heel.Lateral			L.Heel.Top			L.Iliac.Crest			L.MT1			L.MT5			L.PSIS			L.Shank.Bottom.Lateral			L.Shank.Bottom.Medial			L.Shank.Top.Lateral			L.Shank.Top.Medial			L.Thigh.Bottom.Lateral			L.Thigh.Bottom.Medial			L.Thigh.Top.Lateral			L.Thigh.Top.Medial			R.ASIS			R.ASY			R.Heel.Bottom			R.Heel.Lateral			R.Heel.Top			R.Iliac.Crest			R.MT1			R.MT5			R.PSIS			R.Shank.Bottom.Lateral			R.Shank.Bottom.Medial			R.Shank.Top.Lateral			R.Shank.Top.Medial			R.Thigh.Bottom.Lateral			R.Thigh.Bottom.Medial			R.Thigh.Top.Lateral			R.Thigh.Top.Medial			
		X1	Y1	Z1	X2	Y2	Z2	X3	Y3	Z3	X4	Y4	Z4	X5	Y5	Z5	X6	Y6	Z6	X7	Y7	Z7	X8	Y8	Z8	X9	Y9	Z9	X10	Y10	Z10	X11	Y11	Z11	X12	Y12	Z12	X13	Y13	Z13	X14	Y14	Z14	X15	Y15	Z15	X16	Y16	Z16	X17	Y17	Z17	X18	Y18	Z18	X19	Y19	Z19	X20	Y20	Z20	X21	Y21	Z21	X22	Y22	Z22	X23	Y23	Z23	X24	Y24	Z24	X25	Y25	Z25	X26	Y26	Z26	X27	Y27	Z27	X28	Y28	Z28	X29	Y29	Z29	X30	Y30	Z30	X31	Y31	Z31	X32	Y32	Z32	X33	Y33	Z33	

1	0	2176.877513908951	902.6597790755915	868.088048486877	2130.13081037538	113.9650203629837	935.4698895543878	2160.755323029505	125.8587868288821	888.6856284593956	2154.919172190224	157.7757970934037	934.8093140450075	2117.034789222479	985.84960039879	829.5158452446499	2348.609654335677	73.3554816160397	956.7472496091041	2302.870292835365	77.4993751521768	853.5981090301979	2024.28228964124	938.0738551058161	945.2252936322158	2222.297345367728	226.3241045374762	871.5825072063333	2192.232883490268	233.6950527786428	917.8989077121469	2223.803545217991	306.9500014880286	861.3875662569944	2198.214778199183	314.3722782403498	908.9252251330058	2282.089375873223	602.5884000458868	824.8250945609211	2233.486921906289	564.1442951217425	860.3481256803339	2203.761646706046	677.9455147506502	805.3810671718447	2158.007882223638	642.6413662150208	841.2823203693554	2181.149640938447	872.3648141289676	1117.559862230829	1608.382817155781	155.0136621588667	1085.141330659616	1500.493724888481	298.6128827974611	1029.717070676949	1513.579271605234	280.2641458109783	1080.026860957176	1543.114706977191	306.2085381364064	1042.653002417526	2178.290767793362	968.1614550204774	1129.796348868794	1587.646732220181	100.8518466926973	1028.504028419968	1544.310775620419	139.1563899116303	1130.85304776067	2030.921461143346	942.128840091924	1044.022980601301	1607.046973848112	315.6082324111919	1106.739310131429	1598.871135480825	335.3415468893037	1060.56231676633	1654.058420986018	383.0877518714179	1126.161202373755	1641.538261975405	401.8239603856968	1077.445967162936	1893.142504734438	601.0788283677031	1152.143066695674	1857.219460053717	625.0235453608128	1093.325932347943	1940.468727617505	699.8505080667255	1158.391014059765	1910.3325187261	721.0257576249734	1099.472793438543	
2	0.006666666666666667	2176.660902557351	902.6021422409469	868.7534681452881	2165.465994050271	96.76623857479234	935.4851413711099	2194.042669940995	111.7823190951817	888.5394098147976	2184.983473995664	142.011599292431	934.8913919720455	2115.814811804267	985.1278928636623	829.8397611933983	2383.040199818794	79.9310264293138	956.0700841909012	2337.400087412218	79.67618308883785	852.9906165760256	2025.080143153631	939.8285274198512	945.9931737351824	2244.335765974246	217.1385411708243	871.1258899573917	2213.899633754425	222.0827171637174	917.2969574789022	2238.824661418776	296.1167301845571	860.0888636871623	2212.821094467493	301.7648916942867	907.4059201472903	2277.586111628802	597.7470022020301	825.2079620301218	2228.353720576715	560.3293337983085	860.7359402016137	2200.851083344348	674.6640145193069	805.7942697886979	2154.550634087649	640.4409543690774	841.9044921906069	2181.872301782998	873.5772399016952	1117.684262263178	1594.199327303762	170.0671920995755	1087.845960405036	1487.167948651505	313.3574860842019	1028.121206557082	1500.474359727746	296.7441637435905	1078.933917511798	1530.246038097174	320.755623494843	1040.617582799524	2180.265668698706	968.8255420429798	1129.700538965067	1572.455953259934	113.9828964139611	1033.598745976627	1530.234346991441	156.8470212702681	1134.229671181127	2032.134844784143	944.384973645052	1044.966048789032	1596.473966034024	330.2398850140601	1105.487172908546	1589.387939990253	349.6732018511234	1059.036735583592	1646.175187521573	396.1119654300566	1124.547210802854	1634.911793074196	414.4673564210711	1075.518178227836	1892.309589576721	604.6021920153414	1150.528725399388	1856.904140949143	628.9743730738098	1091.543181798425	1941.011937778174	702.7403712946419	1156.751090554103	1910.757937446386	724.6332828582964	1098.037921530235	
3	0.01333333333333333	2176.464741031829	902.4241534026861	869.4021640080853	2200.026337037208	80.24232697578643	935.4936619123285	2226.619206280698	98.25971061531006	888.4084435815581	2214.322650086264	126.8156486392217	934.8938102731365	2114.663884372395	984.2994391857583	830.2425110949534	2416.213027611198	86.88896540410494	955.6513745473343	2370.999392256846	82.17634257672273	852.6084017319797	2025.779450854016	941.3894773826911	946.7123638884312	2265.771635310183	208.3765284740985	870.6389565235303	2234.936854217824	210.9204375573009	916.6225493070414	2253.405653753599	285.6562535566198	858.7462180301724	2226.970848169699	289.5449045866425	905.8263261160046	2272.919468912752	592.8223238667779	825.4387621128748	2223.148120846616	556.4957373502421	861.128459291525	2197.783430126319	671.29129698708	806.1039683636726	2151.000297460696	638.1856273761724	842.5154059962434	2182.536883225006	874.7068347664053	1117.852539496807	1580.31180882086	185.2153976900333	1090.340465321417	1474.37350632369	328.4857676316996	1026.639042905748	1487.947882353133	313.4781946488081	1077.911442868668	1517.910222931347	335.5821450425214	1038.66200746135	2181.970505114471	969.503203831891	1129.609576638426	1557.365453772479	127.382097301192	1038.434221097748	1516.538452053932	174.6680699011275	1137.471381065395	2033.21317521639	946.4473679747366	1045.844319912855	1586.433344679636	344.8388093912343	1104.278173706232	1580.405021367005	364.0389781435769	1057.587666122567	1638.863640065534	408.947126115045	1122.979358104595	1628.807237870622	427.0138660056356	1073.683045750531	1891.941791228303	607.5370666357725	1149.015200455071	1856.941864296347	632.3979098571076	1089.954577896478	1941.860734071325	705.0978931973202	1155.359286685501	1911.397259340805	727.7446958398814	1096.930046901645	
4	0.02	2176.31571522185	902.0376660175098	870.0154284615228	2233.06263014646	64.99228934987828	935.4995429432787	2257.806254662291	85.76468885206772	888.3135737481167	2242.269067317128	112.6955323741991	934.7575479867413	2113.660631025207	983.3074357918006	830.7788227818485	2447.030885389601	94.42719442642611	955.7056123295312	2402.819559285485	85.16300764598242	852.6434790583262	2026.300946613724	942.5791401665751	947.3457590599851	2286.061014713267	200.3616765498715	870.1065932397433	2254.785632752054	200.5519478093979	915.8334240117036	2267.142790365584	275.8584690362724	857.3484911965994	2240.251005155733	278.0113499924034	904.1663534539333	2267.964451836885	587.7533931280947	825.4239630493238	2217.810261466295	552.6308791774608	861.547900770764	2194.437002535123	667.7551395353404	806.2382804749838	2147.279617772553	635.8311330085182	843.1102415053948	2183.106825894208	875.672546739441	1118.10507546957	1566.959197254639	200.5803166872759	1092.416468322561	1462.631150392562	344.3853032975851	1025.401712177029	1476.540470463941	330.7169768064996	1077.042425315144	1506.617417154107	350.9660373657513	1036.884186580048	2183.159900299721	970.2024089024204	1129.546420206162	1542.445915148067	141.363789600364	1042.733876463077	1503.530470340205	192.7660470436962	1140.425031472056	2034.05124601033	948.1218005890091	1046.604609079427	1577.399099310101	359.3872499716242	1103.160730939476	1572.37311430255	378.4891571813584	1056.2963096184	1632.634290290572	421.4275754272782	1121.510757218096	1623.696828951766	439.389922415986	1072.040253219311	1892.453218173061	609.3401041692609	1147.684147923884	1857.639297165024	634.7928788798914	1088.732941120756	1943.288789391033	706.4308904283175	1154.423921386224	1912.440534438606	729.8956770453696	1096.431941142931	
